<?xml version="1.0" standalone="no"?>
<!DOCTYPE svg PUBLIC "-//W3C//DTD SVG 20010904//EN"
 "http://www.w3.org/TR/2001/REC-SVG-20010904/DTD/svg10.dtd">
<svg version="1.0" xmlns="http://www.w3.org/2000/svg"
 width="8.000000pt" height="8.000000pt" viewBox="0 0 8.000000 8.000000"
 preserveAspectRatio="xMidYMid meet">
<metadata>
Created by potrace 1.16, written by Peter Selinger 2001-2019
</metadata>
<g transform="translate(0.000000,8.000000) scale(0.001333,-0.001333)"
fill="#000000" stroke="none">
<path d="M2625 5990 c-4 -6 -42 -285 -85 -621 -43 -336 -80 -612 -82 -614 -2
-2 -48 -20 -103 -40 -55 -21 -126 -50 -157 -66 l-56 -28 -494 374 c-271 206
-502 375 -513 375 -24 0 -503 -475 -511 -507 -5 -17 71 -121 374 -514 l381
-492 -34 -67 c-18 -36 -48 -108 -65 -158 -25 -72 -37 -93 -54 -97 -11 -2 -289
-41 -616 -86 -327 -44 -598 -83 -602 -85 -12 -8 -10 -732 2 -739 6 -4 285 -42
621 -85 336 -43 612 -80 613 -82 2 -2 13 -32 25 -68 13 -36 41 -106 63 -157
22 -51 38 -98 35 -105 -3 -7 -170 -229 -371 -493 -201 -264 -366 -489 -366
-500 0 -24 475 -503 507 -511 18 -5 118 68 500 363 263 203 484 373 491 377 7
4 63 -14 130 -43 64 -27 136 -55 159 -62 33 -9 43 -18 47 -38 3 -14 42 -291
86 -615 45 -325 83 -594 86 -598 8 -12 732 -10 739 2 4 6 40 273 81 593 41
320 76 596 79 613 5 27 12 32 63 48 31 10 102 38 157 62 55 24 103 44 107 44
5 0 228 -166 496 -370 268 -203 496 -370 507 -370 21 0 501 472 511 503 3 10
-1 29 -10 42 -9 13 -178 234 -376 491 -198 256 -360 470 -360 474 0 5 15 42
34 83 18 40 46 110 62 155 24 68 33 82 54 87 14 2 290 41 614 85 325 45 593
83 598 86 12 8 10 732 -2 739 -6 4 -270 40 -588 81 -317 40 -593 76 -613 79
-35 6 -38 10 -59 73 -12 37 -41 108 -65 159 l-43 92 374 493 c205 271 374 502
374 513 0 21 -471 501 -502 511 -9 3 -25 1 -35 -5 -10 -5 -233 -176 -496 -379
l-479 -370 -82 38 c-45 21 -116 50 -159 65 -59 21 -78 33 -82 49 -2 11 -41
289 -85 616 -45 327 -84 598 -86 602 -8 12 -732 10 -739 -2z m535 -2101 c297
-47 569 -273 685 -570 75 -191 75 -447 0 -638 -113 -290 -365 -505 -664 -567
-97 -20 -265 -20 -362 0 -350 73 -632 355 -705 705 -20 97 -20 265 0 362 83
398 430 698 836 721 60 4 131 -1 210 -13z"/>
</g>
</svg>
